# xmcd
#
# Track frame offsets: 
#        150
#        29023
#        49985
#        63595
#        85956
#        104912
#        117166
#        121073
#        143783
#        156625
#        176608
#        193900
#        213548
#
# Disc length: 3093 seconds
#
# Revision: 0
# Processed by: cddbd v1.5.1PL0 Copyright (c) Steve Scherf et al.
# Submitted via: ExactAudioCopy v0.90b4
#
DISCID=ce0c130d
DTITLE=The Original Reverend Jones - none
DYEAR=1997
DGENRE=Rock
TTITLE0=Belladonna
TTITLE1=Western Town
TTITLE2=Helluva Girl
TTITLE3=The ballad of Triggerhappy Kate
TTITLE4=Splatter, Baby, splatter
TTITLE5=Covering U.S.A.
TTITLE6=intermezzo
TTITLE7=Blues is when you lose
TTITLE8=Honey don't cry
TTITLE9=Is there life after dead?
TTITLE10=Germs
TTITLE11=And we rhumba all night long
TTITLE12=Don't know how to smile
EXTD=
EXTT0=
EXTT1=
EXTT2=
EXTT3=
EXTT4=
EXTT5=
EXTT6=
EXTT7=
EXTT8=
EXTT9=
EXTT10=
EXTT11=
EXTT12=
PLAYORDER=
